<?xml version="1.0" encoding="UTF-8"?>
<svg id="Layer_1" data-name="Layer 1" xmlns="http://www.w3.org/2000/svg" viewBox="0 0 731.82 264.66">
  <defs>
    <style>
      .cls-1 {
        fill: #fff;
      }
    </style>
  </defs>
  <g>
    <path class="cls-1" d="M63.14.08l6.41-.08,6.34.19,31.28,89.37c17.18,49.03,31.29,89.16,31.29,89.23,0,.13-5,.19-11.09.19h-11.15l-16.54-46.47-16.6-46.47h-27.18l-1.03,2.69c-.57,1.54-8.07,22.37-16.66,46.35l-15.64,43.58-11.29.19-11.28-.14,1.16-2.75c.7-1.73,14.87-41.99,31.6-89.49L63.14.08ZM76.61,65.9l-3.66-10.26c-1.98-5.7-3.78-9.8-3.97-9.3-1.29,3.34-6.67,19.62-6.48,19.75.07.06,3.27.06,7.12,0l6.99-.19Z"/>
    <path class="cls-1" d="M150.54,0l16.21.25c14.24.26,16.74.45,21.29,1.74,14.67,4.1,27.24,13.65,32.76,24.74,2.05,4.23,2.37,5.44,2.63,10.71.51,10.96-2.82,19.04-11.09,26.67l-4.55,4.17,5.84,3.85c6.67,4.36,14.93,12.44,18.65,18.08,3.07,4.68,6.34,13.2,7.43,19.16.45,2.63.64,7.44.45,11.86-.26,6.09-.71,8.53-2.38,13.4-3.21,9.56-6.99,15.32-15.19,23.27-10.38,9.93-21.47,15.64-37.63,19.29-4.61,1.02-8.91,1.34-20.13,1.6l-14.29.33V0ZM175.1,21.29h-3.4v36.73l4.68-.39c7.25-.64,14.43-3.27,20.19-7.5,3.08-2.18,5.9-7.31,5.9-10.57-.07-6.86-9.16-14.75-20-17.31-2.24-.51-5.57-.96-7.37-.96M175.92,79.75l-4.23-.51v78.14l4.74-.45c19.11-1.73,36.8-14.17,41.41-29.1,2.44-7.89,1.34-17.95-2.69-25-5.32-9.3-18.33-18.34-31.15-21.6-2.05-.58-5.71-1.22-8.08-1.48"/>
  </g>
  <polygon class="cls-1" points="254.02 .19 277.1 .19 300.18 .19 300.18 10.76 300.18 21.34 288 21.34 275.82 21.34 275.82 29.36 275.82 37.37 295.05 37.37 314.28 37.37 314.28 47.95 314.28 58.53 295.05 58.53 275.82 58.53 275.82 108.21 275.82 157.89 298.25 157.89 320.69 157.89 320.69 168.46 320.69 179.04 287.36 179.04 254.02 179.04 254.02 89.61 254.02 .19"/>
  <polygon class="cls-1" points="364.63 159.37 423.86 159.37 423.86 178.93 342.92 178.93 342.92 .17 364.63 .17 364.63 159.37"/>
  <polygon class="cls-1" points="558.72 178.99 538.37 178.99 538.54 .06 558.76 .06 622.82 129.75 623.51 .06 643.91 .06 643.86 178.99 623.62 178.99 558.96 48.1 558.72 178.99"/>
  <polygon class="cls-1" points="688.23 .19 665.15 .19 665.15 89.61 665.15 179.04 698.49 179.04 731.82 179.04 731.82 157.89 709.38 157.89 686.95 157.89 686.95 108.2 686.95 58.52 706.17 58.52 725.41 58.52 725.41 47.95 725.41 37.37 706.17 37.37 686.95 37.37 686.95 29.36 686.95 21.35 699.13 21.35 711.3 21.35 711.3 10.77 711.3 .19 688.23 .19"/>
  <polygon class="cls-1" points="203.52 214.15 188.41 230.15 188.41 214.15 182.41 214.15 182.41 263.56 188.41 263.56 188.41 239.63 193.37 234.3 205.23 263.56 211.52 263.56 198.04 228.89 210.93 214.15 203.52 214.15"/>
  <g>
    <path class="cls-1" d="M233.72,250.86c0,3.68-.81,6.9-2.42,9.66-1.6,2.76-3.87,4.14-6.78,4.14-1.27,0-2.57-.35-3.91-1.07-1.34-.71-2.44-1.56-3.28-2.55v-5.58c2.96,2.18,5.25,3.28,6.9,3.28,1.5,0,2.5-.81,3.02-2.42.52-1.61.78-3.77.78-6.5v-35.59h5.69v36.63Z"/>
    <path class="cls-1" d="M250.42,221.82c1.49,0,2.9.27,4.24.81l2.35-3.97h4.22l-3.44,5.81c.28.23.54.46.79.71,1.07,1.06,1.91,2.29,2.5,3.7.59,1.41.88,2.91.88,4.5s-.29,3.03-.88,4.44c-.6,1.41-1.42,2.65-2.47,3.73-1.06,1.08-2.29,1.91-3.7,2.5-1.41.59-2.91.89-4.5.89-1.5,0-2.92-.27-4.26-.79l-2.33,3.94h-4.22l3.42-5.78c-.28-.23-.54-.48-.8-.73-1.06-1.06-1.88-2.29-2.47-3.69-.6-1.41-.89-2.91-.89-4.5s.29-3.09.89-4.5c.59-1.41,1.42-2.64,2.49-3.7,1.08-1.06,2.32-1.88,3.73-2.47,1.41-.59,2.89-.89,4.44-.89M242.69,258.09h5.9v5.45h-5.9v-5.45ZM246.11,237.09l5.48-9.26c-.37-.07-.76-.11-1.17-.11-1.56,0-2.9.55-4,1.64-1.11,1.08-1.65,2.43-1.65,4.02,0,1.45.45,2.69,1.34,3.71M249.25,238.93c.38.07.77.11,1.18.11,1.59,0,2.93-.55,4.02-1.65,1.09-1.11,1.63-2.44,1.63-4,0-1.43-.45-2.65-1.36-3.69l-5.47,9.24ZM252.17,258.09h5.9v5.45h-5.9v-5.45Z"/>
  </g>
  <polygon class="cls-1" points="288.43 214.15 273.32 230.15 273.32 214.15 267.32 214.15 267.32 263.56 273.32 263.56 273.32 239.63 278.28 234.3 290.14 263.56 296.43 263.56 282.95 228.89 295.84 214.15 288.43 214.15"/>
  <polygon class="cls-1" points="323.63 214.15 308.51 230.15 308.51 214.15 302.52 214.15 302.52 263.56 308.51 263.56 308.51 239.63 313.48 234.3 325.33 263.56 331.63 263.56 318.14 228.89 331.04 214.15 323.63 214.15"/>
  <polygon class="cls-1" points="342.26 214.15 335.88 214.15 335.88 238.87 335.88 263.58 345.09 263.58 354.31 263.58 354.31 260.66 354.31 257.74 348.1 257.74 341.9 257.74 341.9 244.01 341.9 230.28 347.21 230.28 352.53 230.28 352.53 227.35 352.53 224.43 347.21 224.43 341.9 224.43 341.9 222.21 341.9 220 345.27 220 348.64 220 348.64 217.07 348.64 214.15 342.26 214.15"/>
  <polygon class="cls-1" points="383.94 214.12 383.74 249.96 366.04 214.12 360.45 214.12 360.4 263.58 366.02 263.58 366.09 227.39 383.96 263.58 389.56 263.58 389.57 214.12 383.94 214.12"/>
  <g>
    <path class="cls-1" d="M433.96,214.13h6.61v5.78l-1.87.06-1.88.06,2.51,4.5c1.38,2.48,2.5,4.58,2.5,4.65,0,.35-2.79,4.33-2.96,4.26-.12-.06-1.06-.47-2.1-.94-1.87-.85-1.9-.87-3.8-.85-2.12,0-3.64.33-5.34,1.12-4.33,2.03-7.15,6.73-7.21,11.97-.03,3.22,1,5.95,3.22,8.56,2.99,3.49,6.57,5.27,11.14,5.5,4.34.22,8.63-1.36,11.04-4.07,1.83-2.04,2.35-4.15,1.74-6.79-.71-3.01-2.48-4.92-5.46-5.92-2.07-.69-5.12-.45-6.72.53-1.49.92-2.14,3.29-1.34,4.85l.36.74-.4.25c-.76.49-4.67,2.53-4.72,2.48-.03-.04-.2-.35-.38-.69-1.9-3.75-1.27-8.4,1.5-10.88,1.35-1.23,3.52-2.24,6.13-2.91,2.46-.64,3.67-.69,8.74-.45,2.8.13,3.61.11,5.07-.14,2.85-.49,5.26-1.43,7.56-2.97.53-.35.98-.6,1.01-.56.04.04.62.92,1.29,1.96l1.19,1.88-.78.8c-1.75,1.81-4.86,3.27-9.33,4.4l-.76.19.71,1.03c1.72,2.55,2.46,4.74,2.44,7.36-.02,2.14-.33,3.4-1.38,5.34-2.66,4.99-8.45,8.63-14.68,9.21-2.98.29-6.55-.17-9.39-1.18-5.25-1.89-9.95-6.17-11.89-10.84-1.19-2.84-1.35-3.78-1.35-7.78.02-3.31.06-3.77.48-5.36.65-2.43,1.4-4.15,2.69-6.14,2.41-3.71,5.63-6.24,9.27-7.31,1.27-.36,4.34-.69,5.16-.55l.61.13-1.18-2.24c-2.66-5.05-4.65-8.9-4.65-8.96,0-.03,2.97-.07,6.61-.07"/>
    <path class="cls-1" d="M485.25,214.1l4.48.07c3.93.07,4.62.13,5.88.48,4.06,1.13,7.53,3.77,9.05,6.84.57,1.17.66,1.51.73,2.96.14,3.03-.78,5.26-3.07,7.37l-1.25,1.16,1.61,1.06c1.85,1.2,4.13,3.44,5.16,5,.85,1.29,1.76,3.65,2.06,5.3.13.73.18,2.06.13,3.28-.07,1.68-.2,2.36-.66,3.71-.88,2.64-1.93,4.23-4.2,6.43-2.87,2.75-5.94,4.33-10.4,5.33-1.28.28-2.46.38-5.57.44l-3.95.09v-49.5ZM492.03,219.98h-.95v10.15l1.3-.11c2-.17,3.98-.9,5.58-2.07.86-.6,1.63-2.02,1.63-2.92-.02-1.89-2.53-4.07-5.53-4.78-.62-.14-1.54-.27-2.03-.27M492.26,236.14l-1.17-.14v21.6l1.31-.12c5.28-.48,10.17-3.92,11.45-8.05.67-2.18.38-4.96-.75-6.91-1.47-2.57-5.07-5.07-8.61-5.97-.56-.16-1.58-.34-2.23-.41"/>
    <path class="cls-1" d="M528.28,214.12l1.77-.02,1.75.06,8.65,24.7c4.75,13.56,8.64,24.64,8.64,24.67,0,.03-1.38.05-3.07.05h-3.08l-4.58-12.84-4.58-12.85h-7.52l-.28.75c-.16.43-2.23,6.18-4.61,12.81l-4.32,12.05-3.12.05-3.12-.04.32-.76c.19-.48,4.11-11.6,8.74-24.73l8.4-23.89ZM532.01,232.31l-1.01-2.84c-.55-1.58-1.05-2.71-1.11-2.57-.35.92-1.84,5.42-1.79,5.45.02.02.91.02,1.97,0l1.93-.05Z"/>
    <path class="cls-1" d="M553.27,214.15h18.69l1.69.44c2.02.55,2.96,1.06,4.27,2.38,1.66,1.68,2.48,3.86,2.48,6.75.02,2.06-.22,3.07-1.01,4.75-.85,1.77-2.39,3.31-4.15,4.16-2.12,1.04-2.99,1.19-6.86,1.19h-3.42v1.22c0,2.36.87,6.34,2.14,9.94.8,2.2,3.8,8.22,5.48,10.99,1.6,2.64,3.49,5.27,4.84,6.68l.89.93h-3.09l-1.89-1.91c-4.71-4.68-9.2-11.51-11.52-17.44-.94-2.38-1.85-5.57-2.25-7.85-.16-.97-.36-1.97-.44-2.21-.08-.25-.16,6.27-.16,14.47l-.02,14.93h-5.66v-49.43ZM572.33,220.09l-6.7-.06-6.7-.05v8.01l6.43-.06,6.45-.06.87-.53c.51-.34,1.06-.87,1.39-1.38.44-.71.51-1.01.51-2.06,0-1.56-.51-2.67-1.52-3.35l-.73-.48Z"/>
    <path class="cls-1" d="M453,30.86c-29.7,0-53.85,24.16-53.85,53.85s24.16,53.85,53.85,53.85,53.85-24.16,53.85-53.85-24.16-53.85-53.85-53.85M453,157.59c-40.18,0-72.88-32.69-72.88-72.87S412.82,11.84,453,11.84s72.87,32.69,72.87,72.88-32.69,72.87-72.87,72.87"/>
  </g>
</svg>