<?xml version="1.0" encoding="utf-8"?>
<!-- Generator: Adobe Illustrator 17.0.2, SVG Export Plug-In . SVG Version: 6.00 Build 0)  -->
<!DOCTYPE svg PUBLIC "-//W3C//DTD SVG 1.1//EN" "http://www.w3.org/Graphics/SVG/1.1/DTD/svg11.dtd">
<svg version="1.1" id="Layer_1" xmlns="http://www.w3.org/2000/svg" xmlns:xlink="http://www.w3.org/1999/xlink" x="0px" y="0px"
	 width="138px" height="185px" viewBox="0 0 138 185" enable-background="new 0 0 138 185" xml:space="preserve">
<g>
	<rect fill="#FFFFFF" width="138.264" height="185"/>
	<g>
		<path fill="#062417" d="M31.463,32.89c0.026,0,6.916-8.048,6.916-8.048h-4.14l-7.56,9.026v-9.026h-3.523v19.362h3.523v-6.171
			l2.314-2.546l5.811,8.717h4.243L31.463,32.89z"/>
		<path fill="#062417" d="M103.848,72.072v-5.143h5.683c1.645,0,3.059,0.669,3.059,2.495c0,1.928-1.08,2.648-3.343,2.648H103.848z
			 M112.616,73.923c2.108-0.592,3.497-1.954,3.497-4.731c0-3.857-3.06-5.477-6.737-5.477h-9.051v19.362h3.523v-7.971h4.217
			c2.906,0,3.574,1.286,3.781,4.037c0.179,2.34,0.411,3.317,0.797,3.934h3.805v-0.103c-0.514-0.72-0.823-1.877-0.926-4.268
			C115.393,76.109,114.364,74.591,112.616,73.923"/>
		<path fill="#062417" d="M69.279,63.974c5.76,0,8.023-2.443,8.023-7.688V44.278h-3.523v12.291c0,3.214-1.466,4.32-4.526,4.32
			c-2.982,0-4.705-1.029-4.705-4.14v-12.47h-3.523v11.853C61.025,61.686,63.854,63.974,69.279,63.974"/>
	</g>
	<polygon fill="#062417" points="34.844,110.43 25.613,110.43 25.613,102.587 22.09,102.587 22.09,121.95 25.613,121.95 
		25.613,113.619 34.844,113.619 34.844,121.95 38.366,121.95 38.366,102.587 34.844,102.587 	"/>
	<polygon fill="#062417" points="105.044,41.015 105.044,24.842 101.521,24.842 101.521,44.204 115.766,44.204 115.766,41.015 	"/>
	<g>
		<path fill="#062417" d="M69.217,141.721c5.759,0,8.022-2.443,8.022-7.688v-12.008h-3.523v12.291c0,3.214-1.465,4.32-4.525,4.32
			c-2.983,0-4.705-1.029-4.705-4.14v-12.47h-3.523v11.853C60.963,139.433,63.791,141.721,69.217,141.721"/>
	</g>
	<polygon fill="#062417" points="31.925,66.903 38.713,66.903 38.713,63.715 21.743,63.715 21.743,66.903 28.403,66.903 
		28.403,83.077 31.925,83.077 	"/>
	<g>
		<path fill="#062417" d="M107.563,102.254c-4.911,0-7.534,2.263-7.534,5.631c0,4.294,3.317,5.143,7.174,5.785
			c3.857,0.643,5.426,1.002,5.426,3.009c0,1.697-1.466,2.468-4.243,2.468c-3.42,0-4.808-1.286-5.76-3.394l-3.213,1.44
			c0.951,3.086,3.857,5.091,8.793,5.091c4.835,0,8.075-1.594,8.075-5.605c0-4.474-3.112-5.631-7.74-6.377
			c-3.42-0.539-5.013-0.719-5.013-2.621c0-1.595,1.156-2.366,4.011-2.366c2.751,0,4.32,1.26,5.27,3.086l2.932-1.877
			C114.403,103.848,111.831,102.254,107.563,102.254"/>
		<path fill="#062417" d="M69.279,102.848c5.76,0,8.023-2.443,8.023-7.688V83.151h-3.523v12.291c0,3.215-1.466,4.32-4.526,4.32
			c-2.982,0-4.705-1.029-4.705-4.14V83.151h-3.523v11.853C61.025,100.56,63.854,102.848,69.279,102.848"/>
	</g>
	<polygon fill="#062417" points="26.474,152.492 36.168,152.492 36.168,149.381 26.474,149.381 26.474,144.65 37.891,144.65 
		37.891,141.462 22.952,141.462 22.952,160.823 38.38,160.823 38.38,157.635 26.474,157.635 	"/>
	<polygon fill="#062417" points="109.672,144.65 116.46,144.65 116.46,141.462 99.489,141.462 99.489,144.65 106.148,144.65 
		106.148,160.823 109.672,160.823 	"/>
</g>
</svg>
