<?xml version="1.0" encoding="UTF-8"?> <svg xmlns="http://www.w3.org/2000/svg" id="Group_727" data-name="Group 727" width="347.979" height="131.951" viewBox="0 0 347.979 131.951"><g id="Group_502" data-name="Group 502" transform="translate(0 0)"><path id="Path_1156" data-name="Path 1156" d="M148.8,27.5h-18a2.783,2.783,0,0,0-2.743,2.848V156.586a2.794,2.794,0,0,0,2.743,2.848h18a2.812,2.812,0,0,0,2.778-2.848V30.348A2.812,2.812,0,0,0,148.8,27.5" transform="translate(95.691 -27.5)"></path><path id="Path_1157" data-name="Path 1157" d="M153.119,40.964a2.761,2.761,0,0,0-2.062-.944H79.7a2.813,2.813,0,0,0-2.761,2.865V147.248A2.8,2.8,0,0,0,79.7,150.1h52.941a2.809,2.809,0,0,0,2.761-2.848V133.689a2.793,2.793,0,0,0-2.761-2.831h-31.87V110.067h44.083A2.786,2.786,0,0,0,147.6,107.5l6.22-64.351a2.812,2.812,0,0,0-.7-2.184m-25.09,50.215a1.368,1.368,0,0,1-1.363,1.38H101.943a1.368,1.368,0,0,1-1.363-1.38V60.305a1.368,1.368,0,0,1,1.363-1.38h27.379a1.368,1.368,0,0,1,1.363,1.38Z" transform="translate(57.492 -18.145)"></path><path id="Path_1158" data-name="Path 1158" d="M233.19,80.039h-6.395V42.875a2.827,2.827,0,0,0-2.778-2.865H171.093a2.813,2.813,0,0,0-2.761,2.865V56.417a2.793,2.793,0,0,0,2.761,2.831H202.98V80.022H158.9a2.774,2.774,0,0,0-2.743,2.568l-6.238,64.351a2.885,2.885,0,0,0,.716,2.2,2.706,2.706,0,0,0,2.062.944h71.34a2.812,2.812,0,0,0,2.778-2.848V97.354h6.395a2.8,2.8,0,0,0,2.761-2.848V82.887a2.8,2.8,0,0,0-2.778-2.848M202.6,129.468a1.38,1.38,0,0,1-1.363,1.38h-27.4a1.38,1.38,0,0,1-1.363-1.38l2.656-30.891a1.372,1.372,0,0,1,1.38-1.38h24.723a1.368,1.368,0,0,1,1.363,1.38Z" transform="translate(112.011 -18.152)"></path><path id="Path_1159" data-name="Path 1159" d="M110.7,55.423a2.786,2.786,0,0,0-2.761-2.621H64.683l-.839-10.012a2.786,2.786,0,0,0-2.761-2.621H2.761A2.824,2.824,0,0,0,0,43.035L.157,147.118a2.809,2.809,0,0,0,2.761,2.848H20.687a2.809,2.809,0,0,0,2.761-2.848l.1-85.352c0-.821.472-1.485,1.066-1.485H41.13c.577,0,1.048.664,1.048,1.485l.017.367,5.242,85.125a2.81,2.81,0,0,0,2.761,2.691H69.785a2.735,2.735,0,0,0,2.044-.926,2.9,2.9,0,0,0,.716-2.167L66.133,75.377c0-.821.472-1.485,1.031-1.485l19.255.052c.577,0,1.048.664,1.048,1.485l6.15,71.916a2.823,2.823,0,0,0,2.761,2.621h18.835a2.735,2.735,0,0,0,2.044-.926,2.851,2.851,0,0,0,.716-2.167Z" transform="translate(0 -18.033)"></path></g></svg> 