<?xml version="1.0" encoding="utf-8"?>
<!-- Generator: Adobe Illustrator 18.1.1, SVG Export Plug-In . SVG Version: 6.00 Build 0)  -->
<svg version="1.1" id="Layer_1" xmlns="http://www.w3.org/2000/svg" xmlns:xlink="http://www.w3.org/1999/xlink" x="0px" y="0px"
	 viewBox="0 0 74.89 135.28" enable-background="new 0 0 74.89 135.28" xml:space="preserve">
<path fill="#007EA8" d="M0,135.28h3.69c0-2.5,2.03-4.53,4.53-4.53c2.5,0,4.53,2.03,4.53,4.53h2.7c0-2.5,2.03-4.53,4.53-4.53
	c2.5,0,4.53,2.03,4.53,4.53h2.7c0-2.5,2.03-4.53,4.53-4.53c2.5,0,4.53,2.03,4.53,4.53H39c0-2.5,2.03-4.53,4.53-4.53
	c2.5,0,4.53,2.03,4.53,4.53h2.7c0-2.5,2.03-4.53,4.53-4.53c2.5,0,4.53,2.03,4.53,4.53h2.7c0-2.5,2.03-4.53,4.53-4.53
	c2.5,0,4.53,2.03,4.53,4.53h3.3V0H0V135.28z"/>
<g>
	<path fill="#FFFFFF" d="M64.58,64.54H10.34V10.31h54.24V64.54z M66.08,8.81H8.84v57.24h57.24V8.81z"/>
	<path fill="#FFFFFF" d="M11.84,63.04h5.42h2.14l-7.57-7.75V63.04z M58.45,20.35c0,0,0.01,0,0.02,0h0.03c0,0,0.02,0,0.02,0.01
		c0.01,0,0.02,0,0.03,0.01l2.29,1.18c0.04,0.02,0.08,0.06,0.12,0.1c0.04,0.05,0.09,0.11,0.13,0.18c0.04,0.07,0.08,0.15,0.12,0.23
		c0.04,0.08,0.07,0.17,0.09,0.25l1.78,6.28V17.23v-5.42H17.27h-5.42v23.87c0.02-0.01,0.05-0.03,0.07-0.04
		c0.04-0.01,0.07-0.03,0.11-0.05c0.13-0.04,0.27-0.06,0.42-0.05c0.14,0.01,0.29,0.04,0.43,0.09c0.15,0.05,0.29,0.12,0.43,0.22
		c0.14,0.09,0.27,0.21,0.38,0.35L30.1,55.15c0.12,0.15,0.23,0.31,0.3,0.49c0.08,0.18,0.13,0.37,0.15,0.56
		c0.02,0.19,0.02,0.39,0,0.57c-0.03,0.19-0.08,0.36-0.17,0.51l-3.16,5.76h30.43h5.42V33.12l-1.07-0.29
		c-0.04-0.01-0.09-0.04-0.14-0.09c-0.05-0.04-0.09-0.1-0.14-0.17c-0.04-0.07-0.09-0.16-0.13-0.25c-0.03-0.09-0.07-0.18-0.1-0.27
		l-3.1-11.18c-0.02-0.07-0.03-0.14-0.04-0.2c-0.01-0.06-0.01-0.11-0.01-0.15c0-0.04,0.01-0.08,0.03-0.11
		C58.4,20.38,58.42,20.36,58.45,20.35 M41.97,41.79c-0.03,0.12-0.07,0.22-0.14,0.3l-3.9,4.74c-0.01,0.02-0.02,0.03-0.02,0.04
		c-0.01,0.01-0.02,0.01-0.03,0.02c-0.01,0.01-0.02,0.02-0.03,0.03c-0.01,0.01-0.02,0.01-0.03,0.02c-0.08,0.05-0.17,0.08-0.26,0.09
		c-0.09,0.01-0.19-0.01-0.29-0.06c-0.1-0.04-0.2-0.11-0.29-0.2c-0.09-0.09-0.18-0.2-0.27-0.33L25.16,27.56
		c-0.1-0.17-0.18-0.34-0.23-0.51c-0.05-0.17-0.07-0.34-0.07-0.49c0-0.15,0.03-0.29,0.08-0.41c0.05-0.11,0.13-0.21,0.23-0.27
		l5.26-3.2c0.01-0.01,0.02-0.01,0.03-0.01c0.01,0,0.02-0.01,0.03-0.01c0.01,0,0.02-0.01,0.03-0.02c0.01,0,0.02,0,0.04,0
		c0.09-0.02,0.18-0.02,0.28,0.02c0.1,0.02,0.2,0.07,0.3,0.14c0.1,0.06,0.2,0.15,0.29,0.26c0.09,0.1,0.18,0.22,0.26,0.36l10.02,17.14
		c0.08,0.13,0.14,0.28,0.18,0.42c0.05,0.15,0.07,0.29,0.08,0.43C42,41.54,42,41.67,41.97,41.79 M50.98,34.92
		c-0.03,0.08-0.07,0.13-0.12,0.17l-3.14,1.95c-0.06,0.04-0.13,0.05-0.21,0.04c-0.08-0.01-0.15-0.05-0.23-0.12
		c-0.08-0.06-0.16-0.15-0.23-0.24c-0.07-0.1-0.14-0.22-0.2-0.36l-7.04-16.1c-0.06-0.13-0.1-0.27-0.12-0.39
		c-0.02-0.12-0.03-0.23-0.02-0.34c0.01-0.09,0.03-0.18,0.08-0.24c0.04-0.06,0.1-0.1,0.17-0.12l3.74-0.71c0.06-0.01,0.13,0,0.21,0.04
		c0.07,0.03,0.15,0.09,0.23,0.17c0.08,0.08,0.16,0.16,0.22,0.27c0.07,0.1,0.13,0.22,0.19,0.34l6.37,14.7
		c0.05,0.12,0.09,0.24,0.12,0.36c0.03,0.12,0.04,0.23,0.04,0.33C51.02,34.76,51.01,34.85,50.98,34.92 M58.39,32.29
		c0.02,0.09,0.02,0.17,0.02,0.23c0,0.06,0,0.12-0.02,0.18c-0.02,0.04-0.04,0.08-0.07,0.1c-0.01,0-0.01,0-0.02,0.01
		c0,0-0.01,0-0.01,0.01c0,0-0.01,0-0.01,0.01h-0.02l-2.6,0.3c-0.05,0-0.11-0.02-0.16-0.05c-0.06-0.04-0.12-0.09-0.18-0.16
		c-0.06-0.07-0.12-0.16-0.16-0.25c-0.05-0.09-0.1-0.2-0.14-0.31l-4.49-13.35c-0.03-0.1-0.05-0.19-0.07-0.27
		c-0.01-0.08-0.02-0.16-0.01-0.22c0-0.06,0.02-0.11,0.04-0.15c0.02-0.04,0.05-0.06,0.09-0.07c0.01,0,0.01,0,0.02,0h0.02h0.02
		c0,0,0.01,0,0.01,0l2.85,0.57c0.05,0.01,0.11,0.04,0.16,0.09c0.06,0.04,0.11,0.1,0.17,0.18c0.06,0.08,0.11,0.16,0.15,0.25
		c0.05,0.09,0.09,0.19,0.12,0.29l4.22,12.37C58.35,32.12,58.38,32.21,58.39,32.29"/>
</g>
<g>
	<path fill="#FFFFFF" d="M20.22,86.87c0,1.76-0.58,3.14-1.73,4.19c-1.04,0.92-2.34,1.39-3.84,1.39c-1.53,0-2.82-0.46-3.86-1.39
		c-1.16-1.04-1.73-2.43-1.73-4.19V74.86h3.98v12.08c0,0.48,0.16,0.88,0.51,1.18c0.3,0.28,0.67,0.42,1.11,0.42
		c0.85,0,1.6-0.6,1.6-1.6V74.86h3.98V86.87z"/>
	<polygon fill="#FFFFFF" points="33.45,92.44 29.45,92.44 26.16,84.76 26.16,92.44 22.18,92.44 22.18,74.86 26.16,74.86 
		29.45,82.66 29.45,74.86 33.45,74.86 	"/>
	<rect x="35.76" y="74.86" fill="#FFFFFF" width="3.98" height="17.58"/>
	<path fill="#FFFFFF" d="M52.87,87.1c0,1.76-0.58,3.15-1.73,4.19c-1.04,0.92-2.34,1.39-3.84,1.39c-1.53,0-2.82-0.46-3.87-1.39
		c-1.16-1.04-1.74-2.43-1.74-4.19v-6.96c0-1.73,0.58-3.12,1.74-4.14c1.04-0.9,2.34-1.37,3.87-1.37c1.5,0,2.8,0.46,3.84,1.37
		c1.16,1.02,1.73,2.41,1.73,4.14V87.1z M48.89,80.11c0-1-0.74-1.57-1.59-1.57c-0.44,0-0.81,0.14-1.11,0.39
		c-0.35,0.3-0.51,0.69-0.51,1.18v7.05c0,0.49,0.16,0.88,0.51,1.18c0.3,0.28,0.67,0.42,1.11,0.42c0.86,0,1.59-0.6,1.59-1.6V80.11z"/>
	<polygon fill="#FFFFFF" points="66.08,92.44 62.08,92.44 58.79,84.76 58.79,92.44 54.81,92.44 54.81,74.86 58.79,74.86 
		62.08,82.66 62.08,74.86 66.08,74.86 	"/>
	<path fill="#FFFFFF" d="M17.45,110.76c-1,0.97-2.2,1.45-3.61,1.45c-1.34,0-2.51-0.43-3.48-1.32c-0.97-0.89-1.51-1.97-1.62-3.24
		l3.65,0.02c0.15,0.69,0.8,1.12,1.49,1.1c0.78,0,1.45-0.58,1.34-1.17c-0.06-0.37-0.37-0.69-0.86-0.97
		c-0.22-0.13-0.74-0.37-1.58-0.72c-2.83-1.19-4.17-3.05-4.06-5.62c0.06-1.38,0.58-2.55,1.56-3.5c0.97-0.97,2.16-1.45,3.57-1.45
		c1.41,0,2.61,0.48,3.61,1.45c1.02,0.97,1.51,2.14,1.51,3.5l-3.54,0.32c0.02-0.09,0.02-0.17,0.02-0.28c0-0.93-0.67-1.53-1.45-1.56
		c-0.41-0.02-0.76,0.09-1.04,0.35c-0.35,0.28-0.52,0.69-0.52,1.21c0,0.67,0.56,1.26,1.69,1.75c1.73,0.76,2.77,1.25,3.13,1.54
		c1.15,0.87,1.71,2.08,1.71,3.63C18.97,108.62,18.47,109.79,17.45,110.76"/>
	<path fill="#FFFFFF" d="M30.96,107c0,1.64-0.54,2.94-1.64,3.91c-0.97,0.87-2.18,1.3-3.61,1.3c-1.41,0-2.62-0.43-3.59-1.3
		c-1.1-0.97-1.64-2.27-1.64-3.91v-6.49c0-1.62,0.54-2.92,1.64-3.87c0.97-0.87,2.18-1.3,3.59-1.3c1.42,0,2.63,0.43,3.61,1.3
		c1.1,0.95,1.64,2.25,1.64,3.87v0.87h-3.74v-0.88c0-0.93-0.67-1.47-1.51-1.47c-0.41,0-0.74,0.13-1.02,0.37
		c-0.32,0.28-0.47,0.65-0.47,1.1v6.55c0,0.47,0.15,0.84,0.47,1.12c0.28,0.24,0.61,0.37,1.02,0.37c0.84,0,1.51-0.54,1.51-1.49v-0.87
		h3.74V107z"/>
	<polygon fill="#FFFFFF" points="42.18,111.99 32.79,111.99 32.79,95.56 42.18,95.56 42.18,99.28 36.51,99.28 36.51,101.92 
		40.43,101.92 40.43,105.63 36.51,105.63 36.51,108.27 42.18,108.27 	"/>
	<polygon fill="#FFFFFF" points="54.54,111.99 50.8,111.99 47.73,104.81 47.73,111.99 44.01,111.99 44.01,95.56 47.73,95.56 
		50.8,102.85 50.8,95.56 54.54,95.56 	"/>
	<polygon fill="#FFFFFF" points="66.08,111.99 56.69,111.99 56.69,95.56 66.08,95.56 66.08,99.28 60.42,99.28 60.42,101.92 
		64.33,101.92 64.33,105.63 60.42,105.63 60.42,108.27 66.08,108.27 	"/>
</g>
</svg>
