<svg xmlns="http://www.w3.org/2000/svg" viewBox="0 0 287.6 130"><path fill="#E64439" d="M287.6 0H0v87.4h44.5L58.2 130l14.7-42.6 214.7.1V0"/><g fill="#FFF"><path d="M62 13.1c-1.8.7-3.5 1.6-5.3 2.9-1.7 1.3-3.5 2.9-5.1 4.7-1.7 1.9-3.4 3.8-5.1 5.8-1.7 2.1-3.4 4.1-5.1 6.2s-3.5 4.1-5.2 6c-1.3 1.3-2.7 2.9-4.3 4.8-1.6 1.9-3.5 3.7-5.4 5.4-2 1.7-4.1 3.1-6.3 4.3s-4.6 1.8-7 1.8c-1 0-1.6-.4-2-1.1-.4-.7-.5-1.6-.5-2.7s.2-2.2.5-3.5c.3-1.2.7-2.4 1.1-3.4l9.9-26.5c.2-.5.3-1 .4-1.5.1-.5 0-1.1-.2-1.6h18.4l-9.1 21.1c-.2.5-.3 1.1-.4 1.7-.1.6 0 1.1.1 1.3 1.1-.4 2.2-1.4 3.3-3 1.1-1.6 2.3-3.5 3.7-5.6 1.3-2.1 2.9-4.4 4.6-6.7 1.7-2.4 3.7-4.5 6-6.4 2.3-1.9 4.9-3.4 7.9-4.6s6.4-1.6 10.4-1.3l.2 1.2c-1.9-.1-3.7.1-5.5.7z"/><path d="M48.7 55.5c-3.4 0-5.5-.8-6.3-2.5-.8-1.6-.4-4 1.2-7l7-12.7c.4-.8.7-1.4.8-2 .1-.6.1-1.1 0-1.4h15.9c-.4.2-.7.5-1 .8-.3.3-.5.6-.6.9l-7 13.6c-.8 1.6-1.1 2.7-.7 3.4.4.6 1.1 1 2 1 1.2 0 2.5-.3 3.8-1 1.3-.6 2.7-1.4 3.9-2.4 1.3-1 2.5-2 3.6-3 1.1-1.1 2.1-2 2.9-2.9.1.5 0 1.1-.2 1.7-.2.6-.4 1.1-.7 1.3-1.5 1.8-3 3.4-4.7 4.9-1.6 1.5-3.5 2.8-5.4 3.9S59 54 56.6 54.6c-2.3.6-4.9.9-7.9.9zM65 11.4c1.1 0 2 .2 2.8.6.8.4 1.4.9 1.9 1.6.5.6.8 1.4.8 2.3.1.9 0 1.8-.3 2.7s-.7 1.9-1.3 2.7c-.5.8-1.2 1.6-2 2.2-.8.6-1.6 1.1-2.6 1.6-1 .4-2 .6-3.1.6-1 0-1.9-.2-2.7-.6-.8-.4-1.4-.9-1.9-1.6-.5-.6-.8-1.4-.8-2.3-.1-.9 0-1.8.3-2.7.2-1 .6-1.9 1.2-2.8.6-.8 1.3-1.6 2.1-2.2.8-.6 1.7-1.1 2.7-1.5.9-.5 1.9-.6 2.9-.6z"/><path d="M92.1 39.9c.7-1.2 1.3-2.4 1.9-3.6.5-1.1 1-2.3 1.3-3.5.2-.7.2-1.2 0-1.6-.2-.4-.5-.6-1-.7-.4-.1-1 0-1.6.3-.6.3-1.1.8-1.6 1.4-2.4 2.9-4.6 5.8-6.6 8.8-1.9 3-3.5 6.3-4.6 9.8-.3.9-.3 1.5.3 1.8.5.3 1.1.5 1.9.5.8 0 1.6-.1 2.4-.3.8-.2 1.5-.3 1.9-.4 1.5-.5 2.8-1 3.8-1.6s2-1.3 2.8-2.1c.8-.8 1.6-1.6 2.2-2.5.6-.9 1.3-1.9 2-3l5 1.6c-1.3 1.6-2.7 3-4.1 4.3s-3 2.4-4.8 3.4c-1.7.9-3.6 1.7-5.7 2.2-2.1.5-4.4.8-7 .8-2.8 0-5.2-.3-7.1-1.1s-3.4-1.7-4.5-2.9-1.8-2.5-2.1-4-.3-3.1.2-4.7c.4-1.6 1.1-3.2 2.1-4.7s2.4-2.9 3.9-4c1.1-.9 2.4-1.6 3.8-2.3 1.4-.7 2.8-1.2 4.3-1.6 1.5-.4 2.9-.8 4.5-1 1.5-.2 3-.3 4.4-.3 2.6 0 4.8.2 6.9.5 2 .3 3.5.8 4.5 1.5.9.5 1.6 1.2 2.2 1.9.5.8.9 1.5 1.1 2.3.2.8.2 1.6 0 2.4-.2.8-.5 1.6-1 2.4H92.1z"/><path d="M138.8 40.5v1.6c0 .5-.2 1.1-.4 1.6-.8 1-1.8 2.1-3 3.5-1.2 1.3-2.8 2.6-4.7 3.8-1.9 1.2-4.3 2.3-7 3.1-2.7.8-5.9 1.3-9.7 1.3-1.4 0-2.6-.2-3.7-.7-1.1-.5-1.9-1.1-2.5-1.9-.6-.8-1-1.6-1.1-2.6-.1-1 .1-2 .6-3.1l6.5-12.5h-9.5c3.2-1.3 6.1-2.7 8.4-4 2.4-1.3 4.5-2.7 6.4-4.2 1.9-1.5 3.7-3.1 5.4-4.9 1.6-1.8 3.4-3.8 5.1-6.2h8.3l-7.2 14.5h7c-.3.1-.6.4-.8.8-.3.4-.5.8-.7 1.2-.2.4-.5.8-.7 1.1-.3.3-.5.5-.9.5H129l-5.8 11.3c-.7 1.4-1 2.5-.8 3.3.2.8.7 1.3 1.5 1.4.8.2 1.8.1 3-.3 1.2-.3 2.6-.9 4-1.7 1.4-.8 2.8-1.8 4.2-3 1.4-1 2.7-2.4 3.7-3.9z"/><path d="M170.2 44.8c-.5.3-1 .6-1.4.8-.4.3-.8.4-1.2.6-.4.2-.8.3-1.2.4-.4.1-.9.2-1.4.3-.9 1.3-2 2.6-3.2 3.8s-2.7 2.1-4.2 2.9c-1.5.8-3.1 1.5-4.8 1.9-1.7.5-3.4.7-5.1.7-2.2 0-4.2-.4-6-1.1-1.8-.8-3.2-1.8-4.4-3-1.1-1.3-1.9-2.8-2.3-4.5-.4-1.7-.4-3.5.1-5.5.4-1.9 1.3-3.8 2.6-5.5s2.8-3.2 4.6-4.6c1.8-1.3 3.8-2.3 5.9-3s4.3-1.1 6.5-1.1 4.2.4 5.9 1.1c1.8.8 3.2 1.8 4.3 3 1.1 1.3 1.9 2.8 2.3 4.6.4 1.7.3 3.6-.1 5.5-.3 1.2-.8 2.3-1.4 3.4 1.6.2 3.1-.1 4.5-.7zm-6.9-11.3c-1.2-.4-2.5-.5-3.9-.3s-2.7.6-4 1.3c-1.3.6-2.5 1.4-3.6 2.4s-2 2.1-2.7 3.3c-.5.9-1 1.8-1.3 2.8-.3 1-.5 1.9-.5 2.9 0 .9.1 1.8.3 2.5.3.8.7 1.4 1.4 1.9 1 .7 2 1.1 3.1 1.3 1.1.1 2.2 0 3.2-.3 1.1-.3 2-.9 2.9-1.6.8-.7 1.5-1.6 1.9-2.6-1.1.1-2.1 0-2.8-.3-.8-.3-1.3-.7-1.8-1.2-.4-.5-.7-1.1-.8-1.7-.1-.6-.1-1.3 0-2 .1-.8.4-1.7.8-2.6.5-.9 1.1-1.7 1.8-2.5s1.6-1.5 2.6-2.1c1.1-.4 2.2-.9 3.4-1.2zM206 28.1l-7.4 14c0-.6 0-1.2-.2-1.8-.1-.5-.3-1.1-.7-1.4-.3-.5-.8-.8-1.3-1.1s-1-.4-1.6-.5c-.5 0-1.1 0-1.6.1s-1.1.3-1.5.5c-.4.3-.8.6-1.2 1-.4.4-.8.8-1.1 1.4l-7.2 13.9h-15.6c.8-.4 1.3-1 1.9-1.8.5-.8.9-1.5 1.3-2.2l8-15.6c.5-.9.8-1.8.9-2.5.1-.8-.3-1.3-1.1-1.7.5-.3 1.2-.5 1.9-.7.7-.2 1.5-.4 2.4-.6s1.7-.3 2.6-.4c.8-.1 1.7-.1 2.6-.1.9 0 1.8.1 2.6.3.8.2 1.4.4 2 .8.5.4.8.8 1 1.4.2.5.1 1.2-.3 2 1-1.2 2.1-2.2 3.5-2.9 1.3-.7 2.7-1.2 4-1.6 1.3-.3 2.5-.5 3.7-.6 1.2 0 1.9 0 2.4.1zM207.8 55.5c-3.4 0-5.5-.8-6.3-2.5-.8-1.6-.4-4 1.2-7l7-12.7c.4-.8.7-1.4.8-2 .1-.6.1-1.1.1-1.4h15.9c-.4.2-.7.5-1 .8-.3.3-.5.6-.6.9l-7 13.6c-.8 1.6-1.1 2.7-.7 3.4.4.6 1 1 2 1 1.2 0 2.5-.3 3.8-1 1.3-.6 2.7-1.4 3.9-2.4 1.3-1 2.5-2 3.6-3 1.1-1.1 2.1-2 2.9-2.9.1.5 0 1.1-.2 1.7-.2.6-.4 1.1-.7 1.3-1.5 1.8-3 3.4-4.7 4.9-1.6 1.5-3.5 2.8-5.4 3.9-2 1.1-4.1 1.9-6.5 2.5-2.5.6-5.2.9-8.1.9zm16.3-44.1c1.1 0 2 .2 2.8.6.8.4 1.4.9 1.9 1.6.5.6.8 1.4.8 2.3.1.9 0 1.8-.3 2.7s-.7 1.9-1.3 2.7c-.5.8-1.2 1.6-2 2.2-.8.6-1.6 1.1-2.6 1.6-1 .4-2 .6-3.1.6-1 0-1.9-.2-2.7-.6-.8-.4-1.4-.9-1.9-1.6-.5-.6-.8-1.4-.8-2.3-.1-.9 0-1.8.3-2.7.2-1 .6-1.9 1.2-2.8s1.3-1.6 2.1-2.2c.8-.6 1.7-1.1 2.7-1.5.8-.5 1.8-.6 2.9-.6z"/><path d="M276.1 40.3c0 .5-.1 1-.2 1.5-.2.5-.3 1-.5 1.5-1.3 1.6-2.8 3-4.3 4.3-1.5 1.3-3.2 2.6-4.9 3.6-2.3 1.3-4.7 2.3-7.2 3-2.5.7-5.3 1.1-8.5 1.1-.7 0-1.3-.1-2-.3s-1.2-.5-1.7-.9-.9-.8-1.2-1.3c-.3-.5-.4-1-.3-1.6-.8.8-1.6 1.4-2.6 2-1 .5-2 1-3.1 1.3-1.1.3-2.1.5-3.2.7-1.1.1-2.1.2-3.1.2-1.1 0-2.1-.2-2.9-.5-.8-.4-1.6-.9-2.2-1.5-.6-.6-1.1-1.4-1.5-2.3-.3-.9-.6-1.8-.6-2.7-.1-2 .1-3.9.8-5.7.6-1.8 1.5-3.4 2.6-4.8 1.1-1.5 2.4-2.7 4-3.9 1.6-1.1 3.2-2.1 4.9-2.8 1.8-.8 3.5-1.3 5.4-1.7 1.9-.4 3.6-.5 5.4-.5 1.1 0 2.1.2 3.1.5s1.6.9 2 1.6c1-.8 2.2-1.3 3.6-1.6s2.8-.5 4.3-.5 2.9.2 4.3.5c1.3.3 2.5.7 3.4 1.2-.8.5-1.4 1.1-2 1.8-.6.8-1.1 1.5-1.4 2.2l-5.8 10.9c-.4.8-.6 1.5-.6 2.1 0 .5 0 1 .2 1.3.2.3.4.5.8.7.3.1.7.2 1.1.2 1.3 0 2.7-.3 4-.9 1.3-.6 2.6-1.4 3.8-2.4 1.2-.9 2.4-1.9 3.5-3 .7-1.4 1.8-2.4 2.6-3.3zm-24.2-5.8c.3-.8.3-1.3 0-1.7-.3-.4-.6-.6-1.1-.6-1 0-2 .5-3.2 1.4-1.1.9-2.1 2.1-3.2 3.5-1 1.4-1.9 2.9-2.7 4.6-.8 1.6-1.5 3.1-2 4.6-.5 1.4-.8 2.6-.8 3.5 0 .9.3 1.4.8 1.4s1-.1 1.4-.3c.5-.2.9-.5 1.4-.8.5-.3.8-.7 1.2-1 .4-.4.7-.7.9-1.1l7.3-13.5z"/><g><path d="M35.6 77.1l-6.8-10.3v10.3h-2.3V62.4h2.1l6.8 10.3V62.4h2.2v14.7h-2zM50.9 77.1l-1-2.9h-5.8l-1 2.9h-2.4l5.4-14.7H48l5.4 14.7h-2.5zm-3.8-11.4l-2.3 6.5h4.5l-2.2-6.5zM60.3 77.2c-2.2 0-3.8-.5-5.2-1.9l1.5-1.5c1.1 1.1 2.2 1.4 3.8 1.4 1.9 0 3-.8 3-2.2 0-.6-.2-1.2-.6-1.5-.4-.3-.8-.5-1.6-.6l-1.7-.3c-1.2-.2-2.1-.6-2.8-1.2-.7-.7-1.1-1.6-1.1-2.8 0-2.6 1.9-4.3 4.9-4.3 1.9 0 3.3.5 4.6 1.7l-1.4 1.4c-.9-.9-2-1.1-3.2-1.1-1.7 0-2.7 1-2.7 2.3 0 .5.2 1 .5 1.3.4.3 1 .6 1.6.7l1.7.3c1.3.2 2.1.5 2.7 1.1.8.7 1.2 1.8 1.2 3 .1 2.6-2.1 4.2-5.2 4.2zM71.2 77.2c-1.5 0-2.6-.4-3.6-1.4l1.5-1.5c.5.5 1 .9 2.1.9 1.6 0 2.7-1 2.7-2.9v-9.9H76v10.1c.1 3-2.1 4.7-4.8 4.7zM89.3 75.6c-1 1-2.3 1.6-3.9 1.6s-2.9-.5-3.9-1.6c-1.4-1.4-1.4-3.1-1.4-5.9 0-2.8 0-4.5 1.4-5.9 1-1 2.3-1.6 3.9-1.6s2.9.5 3.9 1.6c1.4 1.4 1.4 3.1 1.4 5.9.1 2.9.1 4.5-1.4 5.9zm-1.7-10.4c-.5-.5-1.3-.9-2.2-.9s-1.7.3-2.2.9c-.7.8-.9 1.6-.9 4.6 0 2.9.1 3.8.9 4.6.5.5 1.3.9 2.2.9s1.7-.3 2.2-.9c.7-.8.9-1.6.9-4.6 0-3-.1-3.9-.9-4.6zM104.1 77.1l-6.8-10.3v10.3h-2.2V62.4h2.1l6.8 10.3V62.4h2.2v14.7h-2.1zM119.5 77.1l-1-2.9h-5.8l-1 2.9h-2.4l5.4-14.7h1.8l5.4 14.7h-2.4zm-3.9-11.4l-2.3 6.5h4.5l-2.2-6.5zM125 77.1V62.4h2.2v12.7h7.1v2H125zM145.8 77.2c-1.5 0-2.6-.4-3.6-1.4l1.5-1.5c.5.5 1 .9 2.1.9 1.6 0 2.7-1 2.7-2.9v-9.9h2.2v10.1c-.1 3-2.2 4.7-4.9 4.7zM163.6 77.1l-1-2.9h-5.8l-1 2.9h-2.4l5.4-14.7h1.8l5.4 14.7h-2.4zm-3.9-11.4l-2.3 6.5h4.5l-2.2-6.5zM168.1 77.1v-1.9l6.8-10.8h-6.5v-2h9.1v1.8L170.7 75h6.8v2l-9.4.1zM180.6 77.1v-1.9l6.8-10.8h-6.5v-2h9.1v1.8L183.2 75h6.8v2l-9.4.1zM197.8 77.2c-2.2 0-3.8-.5-5.2-1.9l1.5-1.5c1.1 1.1 2.2 1.4 3.8 1.4 1.9 0 3-.8 3-2.2 0-.6-.2-1.2-.6-1.5-.4-.3-.8-.5-1.6-.6l-1.7-.3c-1.2-.2-2.1-.6-2.8-1.2-.7-.7-1.1-1.6-1.1-2.8 0-2.6 1.9-4.3 4.9-4.3 1.9 0 3.3.5 4.6 1.7l-1.4 1.4c-.9-.9-2-1.1-3.2-1.1-1.7 0-2.7 1-2.7 2.3 0 .5.2 1 .5 1.3.4.3 1 .6 1.6.7l1.7.3c1.3.2 2.1.5 2.7 1.1.8.7 1.2 1.8 1.2 3 .1 2.6-2.1 4.2-5.2 4.2zM211.9 77.2c-1.5 0-2.9-.5-3.9-1.6-1.4-1.4-1.4-3.1-1.4-5.9 0-2.8 0-4.5 1.4-5.9 1-1 2.3-1.6 3.9-1.6 2.7 0 4.7 1.6 5.2 4.5h-2.3c-.3-1.5-1.3-2.5-3-2.5-.9 0-1.6.3-2.1.9-.7.8-.9 1.6-.9 4.6 0 2.9.2 3.8.9 4.6.5.5 1.3.9 2.1.9 1.6 0 2.7-1 3-2.5h2.2c-.4 2.9-2.5 4.5-5.1 4.5zM221.1 77.1V62.4h9.4v2h-7.2v4.3h6.1v2h-6.1v4.4h7.2v2h-9.4zM243.6 77.1l-6.8-10.3v10.3h-2.2V62.4h2.1l6.8 10.3V62.4h2.2v14.7h-2.1zM250.6 77.1V62.4h9.4v2h-7.2v4.3h6.1v2h-6.1v4.4h7.2v2h-9.4z"/></g></g></svg>